<?xml version="1.0" encoding="utf-8"?>
<!-- Generator: Adobe Illustrator 16.0.4, SVG Export Plug-In . SVG Version: 6.00 Build 0)  -->
<!DOCTYPE svg PUBLIC "-//W3C//DTD SVG 1.1//EN" "http://www.w3.org/Graphics/SVG/1.1/DTD/svg11.dtd">
<svg version="1.1" id="Layer_1" xmlns="http://www.w3.org/2000/svg" xmlns:xlink="http://www.w3.org/1999/xlink" x="0px" y="0px"
	 width="432px" height="576px" viewBox="0 0 432 576" enable-background="new 0 0 432 576" xml:space="preserve">
<g>
	<path fill="#FFFFFF" d="M249.8,279.9c11.9-11.6,15.5-29.7,10.8-41.2c-4.699-11.5-17.3-20.6-26-20.6
		c-3.359,0-8.075,1.538-12.6,3.423V218.5h-2.7v4.195c-6.085,2.746-11.2,5.705-11.2,5.705c-14.2,6.9-25.7,13.5-29.4,20.2
		c-3.7,6.6-4.2,12-4.2,12s-11.3-3.9-19.1-0.7c-6.4,2.6-13.2,7.6-14.3,19.7s5.4,21.2,12,24.5c6.6,3.301,15,1.9,15.1,1.801
		c0-0.101-1.2-2.5-1.2-2.5c-1.4,0.1-5.1,0.1-5.1,0.1c-9.1,0-16.4-7.6-16.4-16.7c0-3.5,1.1-6.8,3-9.5c0.9-1.4,2-2.6,3.3-3.5
		c2.8-2.2,6.4-3.6,10.2-3.6c5.2,0,10.8,2.2,12.8,6.4c-0.6,0-5.4-0.7-9.6,2.6c-5.1,3.8-3.2,11.1-3.2,11.1
		c2.8-3.2,19.2-6.4,22.6,12.601c3.4,19-8.8,27.5-8.8,27.5c8.4-1.4,21.5-6.9,26-11.101c3.8-3.5,13.3-12,13.4-26.899
		c0.3-12.4-2.2-22.5-3.8-27.601c-1.2-3.8-2.8-7.8-5.8-15.2s-2.6-14.4,1.9-17.6c2.108-1.5,6.851-1.44,11.8,0.774V329.4
		c-6.7-2.2-29-4.601-44.8,6.1s-16.2,28-16.2,28c3.5-5.7,19.8-12.4,36.4-7.5c16.444,4.854,21.307,11.373,22.661,11.689l0.039,0.11
		c0,0,0.29-0.316,0.806-0.881c1.441-1.506,4.648-5.031,8.245-9.02c9.213-10.086,22.148-24.271,22.148-24.399c0-0.2-1.8-1.8-2-1.8
		c-0.062,0-2.984,3.197-6.986,7.606c-6.588-5.574-17.514-9.106-17.514-9.106V292C222.1,292,237.9,291.6,249.8,279.9z M222,288.9
		v-54.698c4.712,2.874,9.213,7.797,11.4,15.298C238.3,266.3,232.4,287.7,222,288.9z"/>
	<path fill="#FFFFFF" d="M156.4,246.5c9.4,5,20.5-2.6,20.5-2.6s0.7-3.8,0.6-3.8c-0.4,0-3.9,2.9-8.5,3.9c-1.6,0.4-3.1,0.6-4.7,0.6
		c-1.6,0.1-3.3-0.1-5-0.8c-4.4-1.7-6.9-5.7-5.7-8.7c1.2-3.1,4.3-4.3,10.1-2.4c5.8,1.9,10.3,4.8,21.5,3.6
		c11.2-1.2,19.4-10.2,22.4-16.1c3-5.9,1.8-9.7,1.8-9.7s-0.8,4.5-7.2,7.3c-6.3,2.9-16.2-2.3-25.3-4.2c-9.2-1.9-22.4-1.6-27.3,8.2
		C144.7,231.6,147.1,241.5,156.4,246.5z"/>
</g>
</svg>
